REM MD5 e5564f1a4e506246511b4c2395d8c423
FILE "Wild 9 & MDK & Crime Killer (France) (Demo).bin" BINARY
  TRACK 01 MODE2/2352
    INDEX 01 00:00:00
  TRACK 02 AUDIO
    INDEX 00 04:46:01
    INDEX 01 04:48:01
  TRACK 03 AUDIO
    INDEX 00 06:18:58
    INDEX 01 06:20:58
  TRACK 04 AUDIO
    INDEX 00 08:14:60
    INDEX 01 08:16:60
  TRACK 05 AUDIO
    INDEX 00 10:12:45
    INDEX 01 10:14:45
REM LEADOUT 13:15:45
